<?xml version="1.0" standalone="no"?>
<!DOCTYPE svg PUBLIC "-//W3C//DTD SVG 20010904//EN"
 "http://www.w3.org/TR/2001/REC-SVG-20010904/DTD/svg10.dtd">
<svg version="1.0" xmlns="http://www.w3.org/2000/svg"
 width="512.000000pt" height="512.000000pt" viewBox="0 0 512.000000 512.000000"
 preserveAspectRatio="xMidYMid meet">
<metadata>
Created by potrace 1.14, written by Peter Selinger 2001-2017
</metadata>
<g transform="translate(0.000000,512.000000) scale(0.100000,-0.100000)"
fill="#000000" stroke="none">
<path d="M4180 5035 l0 -85 322 -2 321 -3 -807 -807 c-729 -730 -810 -808
-839 -808 -18 0 -420 -1 -893 -1 l-861 0 -39 -32 c-20 -18 -99 -86 -173 -151
-75 -66 -165 -144 -200 -175 -66 -57 -114 -99 -237 -207 -38 -34 -130 -114
-204 -179 -142 -124 -146 -127 -281 -245 -88 -78 -208 -183 -241 -211 -18 -16
-17 -19 34 -78 29 -33 58 -61 63 -61 6 0 33 22 61 48 27 26 77 70 109 97 67
57 123 107 170 150 18 17 54 48 81 70 26 22 52 45 58 50 6 6 65 57 131 115 66
58 125 109 131 115 10 9 102 90 158 138 12 10 46 40 76 67 30 26 98 85 150
130 52 46 97 86 100 89 3 4 29 26 59 51 l55 45 897 1 897 1 831 831 c458 458
834 832 836 832 3 0 5 -143 5 -319 l0 -319 85 -1 85 -2 0 471 0 470 -470 0
-470 0 0 -85z"/>
<path d="M4308 3415 c-2 -2 -46 -5 -98 -9 -120 -8 -143 -12 -265 -43 -143 -37
-249 -92 -312 -163 -51 -57 -50 -15 -49 -1515 l2 -1400 26 -41 c74 -115 266
-200 523 -231 79 -10 354 -10 430 0 229 28 400 93 488 184 23 24 47 58 54 76
17 47 18 2803 1 2861 -15 49 -83 120 -154 158 -117 63 -334 113 -504 117 -47
1 -97 3 -112 5 -15 2 -29 2 -30 1z"/>
<path d="M2419 2386 c-2 -2 -33 -7 -69 -10 -254 -26 -459 -116 -532 -234 l-23
-37 -2 -900 c-2 -1022 -8 -943 82 -1023 127 -111 354 -173 655 -177 325 -5
589 61 718 179 87 80 81 5 81 1007 0 1003 6 936 -81 1014 -130 117 -370 181
-689 183 -75 1 -138 0 -140 -2z"/>
<path d="M658 1705 c-2 -2 -37 -6 -77 -9 -280 -26 -500 -124 -561 -250 -20
-42 -20 -56 -20 -596 1 -540 1 -553 22 -593 61 -120 271 -216 533 -244 88 -10
340 -10 420 -1 271 31 475 123 538 242 21 41 22 44 22 601 l0 560 -27 46 c-61
103 -234 189 -453 223 -16 2 -49 7 -73 11 -40 6 -319 15 -324 10z"/>
</g>
</svg>
