<svg width="22" height="19" viewBox="0 0 22 19" fill="none" xmlns="http://www.w3.org/2000/svg">
<path d="M12.68 17.5723C12.5405 17.433 12.4299 17.2676 12.3544 17.0855C12.2789 16.9034 12.2401 16.7082 12.2401 16.511C12.2401 16.3139 12.2789 16.1187 12.3544 15.9366C12.4299 15.7545 12.5405 15.5891 12.68 15.4498L17.618 10.5103L2 10.4998C1.60218 10.4998 1.22065 10.3418 0.939341 10.0605C0.658036 9.77915 0.500002 9.39762 0.500002 8.9998C0.500002 8.60197 0.658036 8.22044 0.939341 7.93914C1.22065 7.65783 1.60218 7.4998 2 7.4998L17.621 7.5103L12.68 2.5723C12.3985 2.29103 12.2403 1.90948 12.2402 1.51158C12.2401 1.11367 12.398 0.732007 12.6793 0.450546C12.9605 0.169085 13.3421 0.0108829 13.74 0.0107423C14.1379 0.0106016 14.5195 0.168534 14.801 0.449796L20.18 5.8288C20.5979 6.24667 20.9295 6.74278 21.1557 7.28879C21.3819 7.83481 21.4983 8.42003 21.4983 9.01105C21.4983 9.60206 21.3819 10.1873 21.1557 10.7333C20.9295 11.2793 20.5979 11.7754 20.18 12.1933L14.801 17.5723C14.5197 17.8535 14.1382 18.0115 13.7405 18.0115C13.3428 18.0115 12.9613 17.8535 12.68 17.5723Z" fill="white"/>
</svg>
