<svg width="22" height="19" viewBox="0 0 22 19" fill="none" xmlns="http://www.w3.org/2000/svg">
<path d="M9.32 17.5723C9.45946 17.433 9.5701 17.2676 9.64559 17.0855C9.72107 16.9034 9.75993 16.7082 9.75993 16.511C9.75993 16.3139 9.72107 16.1187 9.64559 15.9366C9.5701 15.7545 9.45946 15.5891 9.32 15.4498L4.382 10.5103L20 10.4998C20.3978 10.4998 20.7794 10.3418 21.0607 10.0605C21.342 9.77915 21.5 9.39762 21.5 8.9998C21.5 8.60197 21.342 8.22044 21.0607 7.93914C20.7794 7.65783 20.3978 7.4998 20 7.4998L4.379 7.5103L9.32 2.5723C9.60146 2.29103 9.75966 1.90948 9.7598 1.51158C9.75994 1.11367 9.60201 0.732007 9.32075 0.450546C9.03949 0.169085 8.65793 0.0108829 8.26003 0.0107423C7.86212 0.0106016 7.48046 0.168534 7.199 0.449796L1.82 5.8288C1.40205 6.24667 1.07052 6.74278 0.844324 7.28879C0.618131 7.83481 0.501709 8.42003 0.501709 9.01105C0.501709 9.60206 0.618131 10.1873 0.844324 10.7333C1.07052 11.2793 1.40205 11.7754 1.82 12.1933L7.199 17.5723C7.48029 17.8535 7.86175 18.0115 8.2595 18.0115C8.65724 18.0115 9.03871 17.8535 9.32 17.5723Z" fill="white"/>
</svg>
