<svg width="99" height="114" viewBox="0 0 99 114" fill="none" xmlns="http://www.w3.org/2000/svg">
<path d="M27.1447 11.0886C31.159 9.31526 34.8619 10.1126 38.1188 12.798C40.4543 14.6832 40.1133 16.5506 37.3599 17.8025C32.2104 20.1816 26.8729 22.1612 21.1783 24.2658C24.1224 26.1947 27.1753 26.7383 30.0484 27.7538C42.0343 31.8276 53.5135 36.9286 64.475 43.2772C69.4003 46.1246 74.1889 49.1081 78.6083 52.7099C88.8191 61.0612 93.7531 72.253 95.9227 84.9171C96.4602 87.9205 96.8824 90.892 97.2625 93.9264C97.5915 96.4254 96.7491 97.4097 94.2509 97.4659C93.6526 97.4747 92.9597 97.5568 92.425 97.3349C89.8669 96.2573 88.0394 96.6721 87.1593 99.955C88.4262 97.2505 87.6016 95.5584 85.6855 93.8633C84.3033 92.6629 85.0651 90.4398 84.3663 88.832C83.3901 88.8608 83.7435 90.1003 82.9456 90.2031C82.9145 90.0456 82.8206 89.8459 82.8524 89.7305C84.7413 86.0306 83.3237 82.4371 82.6619 78.8036C80.4169 66.8635 74.3336 57.5893 63.9497 51.1268C59.5383 48.3963 55.1055 45.8336 50.4937 43.4699C42.0563 39.1329 33.3015 35.6767 24.2827 32.8181C23.5905 32.6273 22.9087 32.489 21.9228 32.1924C22.683 34.3881 24.2117 35.7778 25.1516 37.5017C26.8436 40.5502 28.725 43.4523 30.3645 46.5111C31.6697 48.9812 30.8369 50.291 28.0229 50.6821C25.524 51.0112 23.3438 49.9136 21.1947 48.9736C20.5313 49.759 21.2427 50.6006 20.9787 51.1981C17.642 43.128 13.0858 35.7893 7.26792 29.2449C8.92813 32.4087 10.5987 35.6251 12.2589 38.7889C12.1117 38.8725 12.0067 38.8932 11.8595 38.9768C8.42151 33.4359 4.93097 27.9055 1.44042 22.375C0.886519 21.5023 1.36945 21.4616 1.96924 20.907C2.80052 20.143 3.76712 19.7888 4.79659 19.4768C12.045 17.2295 19.2202 14.8875 26.1248 11.7261C26.5242 11.5382 26.8503 11.2557 27.2393 11.0154L27.1447 11.0886Z" fill="#C61508"/>
<path d="M35.825 26.3416C55.2352 29.0607 72.4903 36.896 88.0339 48.7781C72.1945 37.6089 54.6539 30.5391 35.825 26.3416Z" fill="#C61508"/>
<path d="M27.1866 11.0251C22.2286 12.439 17.2809 13.9054 12.3229 15.3193C10.4637 15.8495 8.58373 16.2747 6.62021 16.5527C14.0802 13.7182 21.5808 11.3666 29.3521 9.83447C28.6162 10.2523 27.8803 10.6701 27.1444 11.088L27.1866 11.0251Z" fill="#C61508"/>
</svg>
