<svg width="32" height="32" viewBox="0 0 32 32" fill="white" xmlns="http://www.w3.org/2000/svg">
<g clip-path="url(#clip0_216_571)">
<path d="M30.6559 23.2509L26.3298 18.9247C24.7847 17.3797 22.1582 17.9978 21.5401 20.0063C21.0766 21.3969 19.5316 22.1694 18.141 21.8603C15.0509 21.0878 10.8793 17.0707 10.1068 13.8261C9.64325 12.4355 10.5703 10.8904 11.9608 10.427C13.9694 9.80893 14.5874 7.18234 13.0424 5.63729L8.71622 1.31115C7.48018 0.229616 5.62612 0.229616 4.54458 1.31115L1.60898 4.24675C-1.32661 7.33685 1.91799 15.5256 9.17973 22.7874C16.4415 30.0491 24.6302 33.4483 27.7203 30.3581L30.6559 27.4225C31.7375 26.1865 31.7375 24.3324 30.6559 23.2509Z" />
</g>
<defs>
<clipPath id="clip0_216_571">
<rect width="31" height="31" fill="white" transform="translate(0.5 0.5)"/>
</clipPath>
</defs>
</svg>
