<svg width="32" height="32" viewBox="0 0 32 32" fill="none" xmlns="http://www.w3.org/2000/svg">
<path d="M1.52605 14.9998L8.4232 17.4567L11.1119 25.7207C11.2288 26.2791 11.9302 26.3908 12.3978 26.0558L16.2555 23.0405C16.6062 22.7055 17.1907 22.7055 17.6583 23.0405L24.5554 27.8426C25.023 28.1776 25.7244 27.9543 25.8413 27.3959L30.985 3.94383C31.1019 3.38545 30.5174 2.82707 29.9329 3.05043L1.52605 13.548C0.824649 13.7714 0.824649 14.7764 1.52605 14.9998ZM10.7612 16.2282L24.3216 8.29922C24.5554 8.18754 24.7892 8.52257 24.5554 8.63425L13.4499 18.5735C13.0992 18.9085 12.7485 19.3552 12.7485 19.9136L12.3978 22.5938C12.3978 22.9288 11.8133 23.0405 11.6964 22.5938L10.2936 17.68C9.94288 17.1217 10.1767 16.4516 10.7612 16.2282Z" fill="#1D95D3"/>
</svg>
