<svg width="32" height="32" viewBox="0 0 32 32" fill="none" xmlns="http://www.w3.org/2000/svg">
<g clip-path="url(#clip0_216_579)">
<path d="M26.4634 5.52083C23.547 2.61458 19.6585 1 15.554 1C7.0209 1 0.108012 7.88889 0.108012 16.3924C0.108012 19.0833 0.864111 21.7743 2.16028 24.0347L0 32L8.20906 29.8472C10.4774 31.0313 12.9617 31.6771 15.554 31.6771C24.0871 31.6771 31 24.7882 31 16.2847C30.892 12.3021 29.3798 8.42708 26.4634 5.52083ZM23.007 21.8819C22.6829 22.7431 21.1707 23.6042 20.4146 23.7118C19.7665 23.8194 18.9024 23.8194 18.0383 23.6042C17.4983 23.3889 16.7422 23.1736 15.878 22.7431C11.9895 21.1285 9.50523 17.2535 9.2892 16.9306C9.07317 16.7153 7.66899 14.8854 7.66899 12.9479C7.66899 11.0104 8.64111 10.1493 8.96516 9.71875C9.2892 9.28819 9.72125 9.28819 10.0453 9.28819C10.2613 9.28819 10.5854 9.28819 10.8014 9.28819C11.0174 9.28819 11.3415 9.18056 11.6655 9.93403C11.9895 10.6875 12.7456 12.625 12.8537 12.7326C12.9617 12.9479 12.9617 13.1632 12.8537 13.3785C12.7456 13.5938 12.6376 13.809 12.4216 14.0243C12.2056 14.2396 11.9895 14.5625 11.8815 14.6701C11.6655 14.8854 11.4495 15.1007 11.6655 15.4236C11.8815 15.8542 12.6376 17.0382 13.8258 18.1146C15.338 19.4062 16.5261 19.8368 16.9582 20.0521C17.3902 20.2674 17.6063 20.1597 17.8223 19.9444C18.0383 19.7292 18.7944 18.8681 19.0105 18.4375C19.2265 18.0069 19.5505 18.1146 19.8746 18.2222C20.1986 18.3299 22.1429 19.2986 22.4669 19.5139C22.899 19.7292 23.115 19.8368 23.223 19.9444C23.331 20.2674 23.331 21.0208 23.007 21.8819Z" fill="#55D96A"/>
</g>
<defs>
<clipPath id="clip0_216_579">
<rect width="31" height="31" fill="white" transform="translate(0.5 0.5)"/>
</clipPath>
</defs>
</svg>
