<svg width="119" height="142" viewBox="0 0 119 142" fill="none" xmlns="http://www.w3.org/2000/svg">
<g clip-path="url(#clip0_100_50)">
<path d="M36.6741 134.499C42.2621 136.252 47.0538 134.642 50.9724 130.595C53.7885 127.747 53.0578 125.321 49.2197 124.072C42.0359 121.685 34.6626 119.855 26.7969 117.914C30.4136 114.917 34.381 113.741 38.0398 111.965C53.3271 104.776 67.7894 96.2992 81.3791 86.2455C87.4862 81.735 93.3915 77.0644 98.7152 71.629C111.011 59.0313 115.885 43.4537 116.874 26.3358C117.139 22.2728 117.255 18.2692 117.307 14.1885C117.371 10.8255 116.107 9.64574 112.785 9.94383C111.991 10.0213 111.059 10.0158 110.383 10.3898C107.152 12.2003 104.666 11.9227 103.01 7.70041C105.093 11.098 104.252 13.465 101.964 15.9987C100.31 17.7966 101.651 20.6311 100.964 22.8675C99.6655 22.9748 99.9495 21.2784 98.8759 21.2611C98.8582 21.4746 98.7634 21.7534 98.8228 21.9017C101.88 26.5266 100.535 31.5035 100.2 36.4206C99.003 52.5897 92.3187 65.7956 79.512 75.9142C74.0691 80.1931 68.5727 84.2526 62.8093 88.0749C52.2669 95.0846 41.1723 100.973 29.6385 106.109C28.749 106.466 27.8653 106.751 26.6022 107.291C27.2829 104.266 29.1029 102.195 30.0923 99.7686C31.8815 95.4735 33.9437 91.3445 35.6617 87.0436C37.0243 83.5732 35.7246 81.9605 31.9345 81.8614C28.5715 81.7977 25.844 83.5783 23.1341 85.1454C22.1373 84.2028 22.9552 82.9806 22.5159 82.2275C19.2945 93.4271 14.3468 103.839 7.60738 113.385C9.33725 108.942 11.073 104.427 12.8029 99.9841C12.5952 99.8952 12.4529 99.8835 12.2453 99.7946C8.51221 107.655 4.708 115.51 0.903781 123.364C0.299371 124.604 0.945865 124.586 1.82398 125.232C3.04029 126.122 4.37495 126.447 5.78671 126.707C15.7342 128.607 25.5988 130.643 35.2266 133.805C35.7842 133.995 36.2588 134.321 36.8106 134.582L36.6741 134.499Z" fill="#C61508"/>
<path d="M45.9107 112.977C71.2458 106.476 92.96 93.5125 111.801 75.4374C92.4613 92.6112 70.2545 104.602 45.9107 112.977Z" fill="#C61508"/>
<path d="M36.7391 134.576C29.9533 133.441 23.1734 132.234 16.3875 131.098C13.8429 130.672 11.2864 130.389 8.64102 130.313C18.9566 132.959 29.2541 134.959 39.7883 135.832C38.7502 135.388 37.712 134.944 36.6738 134.499L36.7391 134.576Z" fill="#C61508"/>
</g>
<defs>
<clipPath id="clip0_100_50">
<rect width="132.915" height="107.775" fill="white" transform="matrix(0.0825864 -0.996584 -0.996584 -0.0825864 107.407 141.436)"/>
</clipPath>
</defs>
</svg>
